# xmcd CD database file
#
# Track frame offsets:
#	150
#	18750
#	34050
#	46275
#	51450
#	60300
#	70875
#	91725
#	105375
#	131100
#	147225
#	166350
#	180375
#	200775
#	230025
#	250575
#
# Disc length: 3622 seconds
#
# Revision: 1
# Processed by: cddbd v1.5.1PL2 Copyright (c) Steve Scherf et al.
# Submitted via: freeDBTagger 0.8.2.1
#
DISCID=d80e2410
DTITLE=Paul Mccartney and Wings - London Town
DYEAR=1978
DGENRE=rock
TTITLE0=London Town
TTITLE1=Cafe On The Left Bank
TTITLE2=I'm Carrying
TTITLE3=Backwards Traveller
TTITLE4=Cuff Link
TTITLE5=Children Children
TTITLE6=Girlfriend
TTITLE7=I've Had Enough
TTITLE8=With A Little Luck
TTITLE9=Famous Groupies
TTITLE10=Deliver Your Children
TTITLE11=Name And Address
TTITLE12=Don't Let It Bring You Down
TTITLE13=Morse Moose And The Grey Goose
TTITLE14=Girls' School
TTITLE15=Mull Of Kintyre
EXTD=
EXTT0=
EXTT1=
EXTT2=
EXTT3=
EXTT4=
EXTT5=
EXTT6=
EXTT7=
EXTT8=
EXTT9=
EXTT10=
EXTT11=
EXTT12=
EXTT13=
EXTT14=
EXTT15=
PLAYORDER=
